<mxfile host="app.diagrams.net" modified="2020-04-09T22:37:21.237Z" agent="5.0 (X11)" etag="f7BGxp4NJPC85tYphdXQ" version="12.9.10" type="github">
  <diagram id="qpuiA8D5xUMuNDStyf7p" name="Page-1">
    <mxGraphModel dx="1422" dy="768" grid="1" gridSize="10" guides="1" tooltips="1" connect="1" arrows="1" fold="1" page="1" pageScale="1" pageWidth="850" pageHeight="1100" math="0" shadow="0">
      <root>
        <mxCell id="0" />
        <mxCell id="1" parent="0" />
        <mxCell id="VRL8jtjU4ZXLFxX1yY9M-1" value="клиент" style="shape=umlActor;verticalLabelPosition=bottom;labelBackgroundColor=#ffffff;verticalAlign=top;html=1;fillColor=#fad9d5;strokeColor=#ae4132;" parent="1" vertex="1">
          <mxGeometry x="180" y="200" width="30" height="60" as="geometry" />
        </mxCell>
        <mxCell id="VRL8jtjU4ZXLFxX1yY9M-2" value="тур.агент" style="shape=umlActor;verticalLabelPosition=bottom;labelBackgroundColor=#ffffff;verticalAlign=top;html=1;fillColor=#fad9d5;strokeColor=#ae4132;" parent="1" vertex="1">
          <mxGeometry x="500" y="200" width="30" height="60" as="geometry" />
        </mxCell>
        <mxCell id="VRL8jtjU4ZXLFxX1yY9M-3" value="&lt;div&gt;представитель экскурсионного бюро&lt;/div&gt;" style="shape=umlActor;verticalLabelPosition=bottom;labelBackgroundColor=#ffffff;verticalAlign=top;html=1;fillColor=#fad9d5;strokeColor=#ae4132;" parent="1" vertex="1">
          <mxGeometry x="820" y="200" width="30" height="60" as="geometry" />
        </mxCell>
        <mxCell id="VRL8jtjU4ZXLFxX1yY9M-6" value="Пожелания" style="html=1;fillColor=#d5e8d4;strokeColor=#82b366;" parent="1" vertex="1">
          <mxGeometry x="290" y="230" width="110" height="50" as="geometry" />
        </mxCell>
        <mxCell id="VRL8jtjU4ZXLFxX1yY9M-7" value="Запрос" style="html=1;fillColor=#e1d5e7;strokeColor=#9673a6;" parent="1" vertex="1">
          <mxGeometry x="580" y="230" width="110" height="50" as="geometry" />
        </mxCell>
        <mxCell id="VRL8jtjU4ZXLFxX1yY9M-8" value="Список экскурсий" style="html=1;fillColor=#dae8fc;strokeColor=#6c8ebf;" parent="1" vertex="1">
          <mxGeometry x="990" y="230" width="110" height="50" as="geometry" />
        </mxCell>
        <mxCell id="VRL8jtjU4ZXLFxX1yY9M-10" value="" style="endArrow=classic;html=1;entryX=0.2;entryY=0;entryDx=0;entryDy=0;entryPerimeter=0;" parent="1" target="VRL8jtjU4ZXLFxX1yY9M-18" edge="1">
          <mxGeometry width="50" height="50" relative="1" as="geometry">
            <mxPoint x="200" y="320" as="sourcePoint" />
            <mxPoint x="320" y="320" as="targetPoint" />
          </mxGeometry>
        </mxCell>
        <mxCell id="VRL8jtjU4ZXLFxX1yY9M-12" value="" style="html=1;points=[];perimeter=orthogonalPerimeter;" parent="1" vertex="1">
          <mxGeometry x="190" y="320" width="10" height="360" as="geometry" />
        </mxCell>
        <mxCell id="VRL8jtjU4ZXLFxX1yY9M-13" value="формирование пожеланий" style="text;html=1;strokeColor=none;fillColor=none;align=center;verticalAlign=middle;whiteSpace=wrap;rounded=0;" parent="1" vertex="1">
          <mxGeometry x="200" y="280" width="140" height="40" as="geometry" />
        </mxCell>
        <mxCell id="VRL8jtjU4ZXLFxX1yY9M-14" value="" style="endArrow=none;dashed=1;html=1;" parent="1" edge="1">
          <mxGeometry width="50" height="50" relative="1" as="geometry">
            <mxPoint x="195" y="320" as="sourcePoint" />
            <mxPoint x="195" y="280" as="targetPoint" />
          </mxGeometry>
        </mxCell>
        <mxCell id="VRL8jtjU4ZXLFxX1yY9M-16" value="" style="endArrow=none;dashed=1;html=1;entryX=0.433;entryY=1.017;entryDx=0;entryDy=0;entryPerimeter=0;" parent="1" source="VRL8jtjU4ZXLFxX1yY9M-41" edge="1">
          <mxGeometry width="50" height="50" relative="1" as="geometry">
            <mxPoint x="344.75" y="508.64" as="sourcePoint" />
            <mxPoint x="345.0799999999999" y="399.9999999999999" as="targetPoint" />
          </mxGeometry>
        </mxCell>
        <mxCell id="VRL8jtjU4ZXLFxX1yY9M-17" value="" style="endArrow=none;dashed=1;html=1;" parent="1" source="VRL8jtjU4ZXLFxX1yY9M-18" edge="1">
          <mxGeometry width="50" height="50" relative="1" as="geometry">
            <mxPoint x="345.1" y="300" as="sourcePoint" />
            <mxPoint x="344.6" y="280" as="targetPoint" />
          </mxGeometry>
        </mxCell>
        <mxCell id="VRL8jtjU4ZXLFxX1yY9M-18" value="" style="html=1;points=[];perimeter=orthogonalPerimeter;" parent="1" vertex="1">
          <mxGeometry x="340" y="320" width="10" height="40" as="geometry" />
        </mxCell>
        <mxCell id="VRL8jtjU4ZXLFxX1yY9M-19" value="" style="endArrow=classic;html=1;entryX=0.05;entryY=-0.006;entryDx=0;entryDy=0;entryPerimeter=0;" parent="1" edge="1">
          <mxGeometry width="50" height="50" relative="1" as="geometry">
            <mxPoint x="350" y="380" as="sourcePoint" />
            <mxPoint x="510.5" y="379.52" as="targetPoint" />
          </mxGeometry>
        </mxCell>
        <mxCell id="VRL8jtjU4ZXLFxX1yY9M-20" value="передаются" style="text;html=1;strokeColor=none;fillColor=none;align=center;verticalAlign=middle;whiteSpace=wrap;rounded=0;" parent="1" vertex="1">
          <mxGeometry x="360" y="360" width="140" height="20" as="geometry" />
        </mxCell>
        <mxCell id="VRL8jtjU4ZXLFxX1yY9M-21" value="" style="endArrow=none;dashed=1;html=1;entryX=0.433;entryY=1.017;entryDx=0;entryDy=0;entryPerimeter=0;" parent="1" source="VRL8jtjU4ZXLFxX1yY9M-45" edge="1">
          <mxGeometry width="50" height="50" relative="1" as="geometry">
            <mxPoint x="514.75" y="508.64" as="sourcePoint" />
            <mxPoint x="515.0799999999999" y="399.9999999999999" as="targetPoint" />
          </mxGeometry>
        </mxCell>
        <mxCell id="VRL8jtjU4ZXLFxX1yY9M-22" value="" style="endArrow=none;dashed=1;html=1;" parent="1" edge="1">
          <mxGeometry width="50" height="50" relative="1" as="geometry">
            <mxPoint x="515" y="380" as="sourcePoint" />
            <mxPoint x="514.5999999999999" y="280" as="targetPoint" />
          </mxGeometry>
        </mxCell>
        <mxCell id="VRL8jtjU4ZXLFxX1yY9M-24" value="" style="endArrow=classic;html=1;exitX=0.475;exitY=0;exitDx=0;exitDy=0;exitPerimeter=0;entryX=0.15;entryY=-0.006;entryDx=0;entryDy=0;entryPerimeter=0;" parent="1" target="VRL8jtjU4ZXLFxX1yY9M-47" edge="1">
          <mxGeometry width="50" height="50" relative="1" as="geometry">
            <mxPoint x="520" y="440" as="sourcePoint" />
            <mxPoint x="635.25" y="440" as="targetPoint" />
          </mxGeometry>
        </mxCell>
        <mxCell id="VRL8jtjU4ZXLFxX1yY9M-25" value="" style="endArrow=none;dashed=1;html=1;entryX=0.433;entryY=1.017;entryDx=0;entryDy=0;entryPerimeter=0;" parent="1" edge="1">
          <mxGeometry width="50" height="50" relative="1" as="geometry">
            <mxPoint x="635" y="560" as="sourcePoint" />
            <mxPoint x="635.0799999999999" y="399.9999999999999" as="targetPoint" />
          </mxGeometry>
        </mxCell>
        <mxCell id="VRL8jtjU4ZXLFxX1yY9M-26" value="" style="endArrow=none;dashed=1;html=1;" parent="1" edge="1">
          <mxGeometry width="50" height="50" relative="1" as="geometry">
            <mxPoint x="635" y="400" as="sourcePoint" />
            <mxPoint x="634.5999999999999" y="280" as="targetPoint" />
          </mxGeometry>
        </mxCell>
        <mxCell id="VRL8jtjU4ZXLFxX1yY9M-28" value="формулирует конкретный запрос" style="text;html=1;strokeColor=none;fillColor=none;align=center;verticalAlign=middle;whiteSpace=wrap;rounded=0;" parent="1" vertex="1">
          <mxGeometry x="530" y="380" width="90" height="60" as="geometry" />
        </mxCell>
        <mxCell id="VRL8jtjU4ZXLFxX1yY9M-29" value="" style="endArrow=classic;html=1;" parent="1" edge="1">
          <mxGeometry width="50" height="50" relative="1" as="geometry">
            <mxPoint x="640" y="500" as="sourcePoint" />
            <mxPoint x="820" y="500" as="targetPoint" />
          </mxGeometry>
        </mxCell>
        <mxCell id="VRL8jtjU4ZXLFxX1yY9M-30" value="поступает" style="text;html=1;strokeColor=none;fillColor=none;align=center;verticalAlign=middle;whiteSpace=wrap;rounded=0;" parent="1" vertex="1">
          <mxGeometry x="690" y="470" width="90" height="30" as="geometry" />
        </mxCell>
        <mxCell id="VRL8jtjU4ZXLFxX1yY9M-32" value="" style="endArrow=none;dashed=1;html=1;" parent="1" source="VRL8jtjU4ZXLFxX1yY9M-50" edge="1">
          <mxGeometry width="50" height="50" relative="1" as="geometry">
            <mxPoint x="825" y="651" as="sourcePoint" />
            <mxPoint x="825" y="320" as="targetPoint" />
          </mxGeometry>
        </mxCell>
        <mxCell id="VRL8jtjU4ZXLFxX1yY9M-33" value="" style="endArrow=none;dashed=1;html=1;" parent="1" edge="1">
          <mxGeometry width="50" height="50" relative="1" as="geometry">
            <mxPoint x="824.5999999999997" y="320" as="sourcePoint" />
            <mxPoint x="824.5999999999997" y="280" as="targetPoint" />
          </mxGeometry>
        </mxCell>
        <mxCell id="VRL8jtjU4ZXLFxX1yY9M-35" value="" style="endArrow=none;dashed=1;html=1;" parent="1" source="VRL8jtjU4ZXLFxX1yY9M-53" edge="1">
          <mxGeometry width="50" height="50" relative="1" as="geometry">
            <mxPoint x="1045" y="680.5" as="sourcePoint" />
            <mxPoint x="1045" y="320" as="targetPoint" />
          </mxGeometry>
        </mxCell>
        <mxCell id="VRL8jtjU4ZXLFxX1yY9M-36" value="" style="endArrow=none;dashed=1;html=1;" parent="1" edge="1">
          <mxGeometry width="50" height="50" relative="1" as="geometry">
            <mxPoint x="1045" y="330" as="sourcePoint" />
            <mxPoint x="1044.5999999999997" y="280" as="targetPoint" />
          </mxGeometry>
        </mxCell>
        <mxCell id="VRL8jtjU4ZXLFxX1yY9M-40" value="" style="endArrow=none;dashed=1;html=1;" parent="1" edge="1">
          <mxGeometry width="50" height="50" relative="1" as="geometry">
            <mxPoint x="344.75" y="380" as="sourcePoint" />
            <mxPoint x="344.75" y="360" as="targetPoint" />
          </mxGeometry>
        </mxCell>
        <mxCell id="VRL8jtjU4ZXLFxX1yY9M-41" value="" style="html=1;points=[];perimeter=orthogonalPerimeter;" parent="1" vertex="1">
          <mxGeometry x="340" y="380" width="10" height="40" as="geometry" />
        </mxCell>
        <mxCell id="VRL8jtjU4ZXLFxX1yY9M-44" value="" style="html=1;points=[];perimeter=orthogonalPerimeter;" parent="1" vertex="1">
          <mxGeometry x="510" y="380" width="10" height="40" as="geometry" />
        </mxCell>
        <mxCell id="VRL8jtjU4ZXLFxX1yY9M-45" value="" style="html=1;points=[];perimeter=orthogonalPerimeter;" parent="1" vertex="1">
          <mxGeometry x="510" y="440" width="10" height="40" as="geometry" />
        </mxCell>
        <mxCell id="VRL8jtjU4ZXLFxX1yY9M-46" value="" style="endArrow=none;dashed=1;html=1;entryX=0.433;entryY=1.017;entryDx=0;entryDy=0;entryPerimeter=0;" parent="1" source="VRL8jtjU4ZXLFxX1yY9M-63" target="VRL8jtjU4ZXLFxX1yY9M-45" edge="1">
          <mxGeometry width="50" height="50" relative="1" as="geometry">
            <mxPoint x="514" y="720" as="sourcePoint" />
            <mxPoint x="515.0799999999999" y="399.9999999999999" as="targetPoint" />
          </mxGeometry>
        </mxCell>
        <mxCell id="VRL8jtjU4ZXLFxX1yY9M-47" value="" style="html=1;points=[];perimeter=orthogonalPerimeter;" parent="1" vertex="1">
          <mxGeometry x="630" y="440" width="10" height="40" as="geometry" />
        </mxCell>
        <mxCell id="VRL8jtjU4ZXLFxX1yY9M-48" value="" style="html=1;points=[];perimeter=orthogonalPerimeter;" parent="1" vertex="1">
          <mxGeometry x="630" y="500" width="10" height="40" as="geometry" />
        </mxCell>
        <mxCell id="VRL8jtjU4ZXLFxX1yY9M-49" value="" style="endArrow=classic;html=1;" parent="1" edge="1">
          <mxGeometry width="50" height="50" relative="1" as="geometry">
            <mxPoint x="830" y="560" as="sourcePoint" />
            <mxPoint x="1040" y="560" as="targetPoint" />
            <Array as="points">
              <mxPoint x="890" y="560" />
              <mxPoint x="939.67" y="560" />
              <mxPoint x="990" y="560" />
            </Array>
          </mxGeometry>
        </mxCell>
        <mxCell id="VRL8jtjU4ZXLFxX1yY9M-50" value="" style="html=1;points=[];perimeter=orthogonalPerimeter;" parent="1" vertex="1">
          <mxGeometry x="820" y="500" width="10" height="40" as="geometry" />
        </mxCell>
        <mxCell id="VRL8jtjU4ZXLFxX1yY9M-51" value="" style="endArrow=none;dashed=1;html=1;" parent="1" target="VRL8jtjU4ZXLFxX1yY9M-50" edge="1">
          <mxGeometry width="50" height="50" relative="1" as="geometry">
            <mxPoint x="825" y="740" as="sourcePoint" />
            <mxPoint x="825" y="320" as="targetPoint" />
          </mxGeometry>
        </mxCell>
        <mxCell id="VRL8jtjU4ZXLFxX1yY9M-52" value="" style="html=1;points=[];perimeter=orthogonalPerimeter;" parent="1" vertex="1">
          <mxGeometry x="820" y="560" width="10" height="40" as="geometry" />
        </mxCell>
        <mxCell id="VRL8jtjU4ZXLFxX1yY9M-53" value="" style="html=1;points=[];perimeter=orthogonalPerimeter;" parent="1" vertex="1">
          <mxGeometry x="1040" y="560" width="10" height="40" as="geometry" />
        </mxCell>
        <mxCell id="VRL8jtjU4ZXLFxX1yY9M-54" value="" style="endArrow=none;dashed=1;html=1;" parent="1" target="VRL8jtjU4ZXLFxX1yY9M-53" edge="1">
          <mxGeometry width="50" height="50" relative="1" as="geometry">
            <mxPoint x="1045" y="630" as="sourcePoint" />
            <mxPoint x="1045" y="320" as="targetPoint" />
          </mxGeometry>
        </mxCell>
        <mxCell id="VRL8jtjU4ZXLFxX1yY9M-56" value="" style="endArrow=none;dashed=1;html=1;entryX=0.433;entryY=1.017;entryDx=0;entryDy=0;entryPerimeter=0;" parent="1" edge="1">
          <mxGeometry width="50" height="50" relative="1" as="geometry">
            <mxPoint x="345" y="440" as="sourcePoint" />
            <mxPoint x="345.08000000000004" y="419.99999999999994" as="targetPoint" />
          </mxGeometry>
        </mxCell>
        <mxCell id="VRL8jtjU4ZXLFxX1yY9M-58" value="ищет конкретную экскурсию" style="text;html=1;strokeColor=none;fillColor=none;align=center;verticalAlign=middle;whiteSpace=wrap;rounded=0;" parent="1" vertex="1">
          <mxGeometry x="900" y="520" width="90" height="30" as="geometry" />
        </mxCell>
        <mxCell id="VRL8jtjU4ZXLFxX1yY9M-60" value="" style="endArrow=none;dashed=1;html=1;" parent="1" edge="1">
          <mxGeometry width="50" height="50" relative="1" as="geometry">
            <mxPoint x="1045" y="740" as="sourcePoint" />
            <mxPoint x="1045" y="630" as="targetPoint" />
          </mxGeometry>
        </mxCell>
        <mxCell id="VRL8jtjU4ZXLFxX1yY9M-61" value="return ответ о наличии подходящей под запрос экскурсии" style="html=1;verticalAlign=bottom;endArrow=open;dashed=1;endSize=8;" parent="1" edge="1">
          <mxGeometry x="-0.0385" relative="1" as="geometry">
            <mxPoint x="820" y="620" as="sourcePoint" />
            <mxPoint x="520" y="621" as="targetPoint" />
            <mxPoint as="offset" />
          </mxGeometry>
        </mxCell>
        <mxCell id="VRL8jtjU4ZXLFxX1yY9M-62" value="" style="html=1;points=[];perimeter=orthogonalPerimeter;" parent="1" vertex="1">
          <mxGeometry x="820" y="620" width="10" height="40" as="geometry" />
        </mxCell>
        <mxCell id="VRL8jtjU4ZXLFxX1yY9M-63" value="" style="html=1;points=[];perimeter=orthogonalPerimeter;" parent="1" vertex="1">
          <mxGeometry x="510" y="620" width="10" height="40" as="geometry" />
        </mxCell>
        <mxCell id="VRL8jtjU4ZXLFxX1yY9M-64" value="" style="endArrow=none;dashed=1;html=1;entryX=0.433;entryY=1.017;entryDx=0;entryDy=0;entryPerimeter=0;" parent="1" source="VRL8jtjU4ZXLFxX1yY9M-65" target="VRL8jtjU4ZXLFxX1yY9M-63" edge="1">
          <mxGeometry width="50" height="50" relative="1" as="geometry">
            <mxPoint x="514" y="720" as="sourcePoint" />
            <mxPoint x="514.3299999999999" y="480.67999999999995" as="targetPoint" />
          </mxGeometry>
        </mxCell>
        <mxCell id="VRL8jtjU4ZXLFxX1yY9M-65" value="" style="html=1;points=[];perimeter=orthogonalPerimeter;" parent="1" vertex="1">
          <mxGeometry x="510" y="680" width="10" height="40" as="geometry" />
        </mxCell>
        <mxCell id="VRL8jtjU4ZXLFxX1yY9M-66" value="" style="endArrow=none;dashed=1;html=1;entryX=0.433;entryY=1.017;entryDx=0;entryDy=0;entryPerimeter=0;" parent="1" target="VRL8jtjU4ZXLFxX1yY9M-65" edge="1">
          <mxGeometry width="50" height="50" relative="1" as="geometry">
            <mxPoint x="514" y="740" as="sourcePoint" />
            <mxPoint x="514.3299999999999" y="660.6800000000001" as="targetPoint" />
          </mxGeometry>
        </mxCell>
        <mxCell id="VRL8jtjU4ZXLFxX1yY9M-71" value="return ответ о наличии экскурсии, подходящей под пожелания " style="html=1;verticalAlign=bottom;endArrow=open;dashed=1;endSize=8;entryX=1.067;entryY=-0.017;entryDx=0;entryDy=0;entryPerimeter=0;" parent="1" edge="1">
          <mxGeometry x="-0.0385" relative="1" as="geometry">
            <mxPoint x="510" y="680" as="sourcePoint" />
            <mxPoint x="200.67000000000007" y="679.3199999999999" as="targetPoint" />
            <mxPoint as="offset" />
          </mxGeometry>
        </mxCell>
        <mxCell id="VRL8jtjU4ZXLFxX1yY9M-73" value="" style="endArrow=none;dashed=1;html=1;" parent="1" target="VRL8jtjU4ZXLFxX1yY9M-12" edge="1">
          <mxGeometry width="50" height="50" relative="1" as="geometry">
            <mxPoint x="194" y="740" as="sourcePoint" />
            <mxPoint x="194.32999999999993" y="720.6800000000001" as="targetPoint" />
          </mxGeometry>
        </mxCell>
        <mxCell id="VRL8jtjU4ZXLFxX1yY9M-74" value="&lt;div&gt;&amp;lt; interaction &amp;gt; Моделирование процесса выбора экскурсии&lt;/div&gt;" style="rounded=0;whiteSpace=wrap;html=1;" parent="1" vertex="1">
          <mxGeometry x="40" y="40" width="510" height="40" as="geometry" />
        </mxCell>
        <mxCell id="VRL8jtjU4ZXLFxX1yY9M-75" value="" style="shape=umlDestroy;whiteSpace=wrap;html=1;strokeWidth=1;" parent="1" vertex="1">
          <mxGeometry x="335" y="440" width="20" height="20" as="geometry" />
        </mxCell>
        <mxCell id="VRL8jtjU4ZXLFxX1yY9M-76" value="" style="shape=umlDestroy;whiteSpace=wrap;html=1;strokeWidth=1;" parent="1" vertex="1">
          <mxGeometry x="625" y="560" width="20" height="20" as="geometry" />
        </mxCell>
      </root>
    </mxGraphModel>
  </diagram>
</mxfile>
